<?xml version="1.0" encoding="UTF-8"?>
<svg width="300mm" height="300mm" version="1.1" viewBox="0 0 300 300" xmlns="http://www.w3.org/2000/svg" xmlns:cc="http://creativecommons.org/ns#" xmlns:dc="http://purl.org/dc/elements/1.1/" xmlns:rdf="http://www.w3.org/1999/02/22-rdf-syntax-ns#">
 <metadata>
  <rdf:RDF>
   <cc:Work rdf:about="">
    <dc:format>image/svg+xml</dc:format>
    <dc:type rdf:resource="http://purl.org/dc/dcmitype/StillImage"/>
    <dc:title/>
   </cc:Work>
  </rdf:RDF>
 </metadata>
 <g stroke-width=".26458">
  <g fill="#ff6600">
   <rect x="63.109" y="47.629" fill="#ff6600" width="10" height="10"/>
   <rect x="73.109" y="47.629" fill="#ff6600" width="10" height="10"/>
   <rect x="83.109" y="47.629" fill="#ff6600" width="10" height="10"/>
   <rect x="93.109" y="47.629" fill="#ff6600" width="10" height="10"/>
   <rect x="103.11" y="57.629" fill="#ff6600" width="10" height="10"/>
   <rect x="53.109" y="57.629" fill="#ff6600" width="10" height="10"/>
   <rect x="63.109" y="57.629" fill="#ff6600" width="10" height="10"/>
   <rect x="73.109" y="57.629" fill="#ff6600" width="10" height="10"/>
   <rect x="83.109" y="57.629" fill="#ff6600" width="10" height="10"/>
   <rect x="93.109" y="57.629" fill="#ff6600" width="10" height="10"/>
   <rect x="53.109" y="67.629" fill="#ff6600" width="10" height="10"/>
   <rect x="63.109" y="67.629" fill="#ff6600" width="10" height="10"/>
   <rect x="73.109" y="67.629" fill="#ff6600" width="10" height="10"/>
   <rect x="83.109" y="67.629" fill="#ff6600" width="10" height="10"/>
   <rect x="93.109" y="67.629" fill="#ff6600" width="10" height="10"/>
   <rect x="103.11" y="67.629" fill="#ff6600" width="10" height="10"/>
   <rect x="103.11" y="77.629" fill="#ff6600" width="10" height="10"/>
   <rect x="113.11" y="77.629" fill="#ff6600" width="10" height="10"/>
   <rect x="93.109" y="77.629" fill="#ff6600" width="10" height="10"/>
   <rect x="83.109" y="77.629" fill="#ff6600" width="10" height="10"/>
   <rect x="73.109" y="77.629" fill="#ff6600" width="10" height="10"/>
   <rect x="63.109" y="77.629" fill="#ff6600" width="10" height="10"/>
   <rect x="53.109" y="77.629" fill="#ff6600" width="10" height="10"/>
   <rect x="43.109" y="77.629" fill="#ff6600" width="10" height="10"/>
  </g>
  <g fill="#000000">
   <rect x="63.109" y="37.629" fill="#000000" width="10" height="10"/>
   <rect x="73.109" y="37.629" fill="#000000" width="10" height="10"/>
   <rect x="83.109" y="37.629" fill="#000000" width="10" height="10"/>
   <rect x="93.109" y="37.629" fill="#000000" width="10" height="10"/>
   <rect x="103.11" y="47.629" fill="#000000" width="10" height="10"/>
   <rect x="113.11" y="57.629" fill="#000000" width="10" height="10"/>
   <rect x="113.11" y="67.629" fill="#000000" width="10" height="10"/>
   <rect x="123.11" y="77.629" fill="#000000" width="10" height="10"/>
   <rect x="123.11" y="87.629" fill="#000000" width="10" height="10"/>
   <rect x="133.11" y="97.629" fill="#000000" width="10" height="10"/>
   <rect x="133.11" y="107.63" fill="#000000" width="10" height="10"/>
   <rect x="143.11" y="117.63" fill="#000000" width="10" height="10"/>
   <rect x="153.11" y="127.63" fill="#000000" width="10" height="10"/>
   <rect x="153.11" y="137.63" fill="#000000" width="10" height="10"/>
   <rect x="163.11" y="137.63" fill="#000000" width="10" height="10"/>
   <rect x="163.11" y="147.63" fill="#000000" width="10" height="10"/>
   <rect x="163.11" y="157.63" fill="#000000" width="10" height="10"/>
   <rect x="163.11" y="167.63" fill="#000000" width="10" height="10"/>
   <rect x="163.11" y="177.63" fill="#000000" width="10" height="10"/>
   <rect x="53.109" y="47.629" fill="#000000" width="10" height="10"/>
   <rect x="43.109" y="57.629" fill="#000000" width="10" height="10"/>
   <rect x="43.109" y="67.629" fill="#000000" width="10" height="10"/>
   <rect x="33.109" y="77.629" fill="#000000" width="10" height="10"/>
   <rect x="23.109" y="87.629" fill="#000000" width="10" height="10"/>
   <rect x="23.109" y="97.629" fill="#000000" width="10" height="10"/>
   <rect x="23.109" y="107.63" fill="#000000" width="10" height="10"/>
   <rect x="33.109" y="117.63" fill="#000000" width="10" height="10"/>
   <rect x="43.109" y="127.63" fill="#000000" width="10" height="10"/>
   <rect x="53.109" y="127.63" fill="#000000" width="10" height="10"/>
   <rect x="63.109" y="137.63" fill="#000000" width="10" height="10"/>
   <rect x="73.109" y="137.63" fill="#000000" width="10" height="10"/>
   <rect x="83.109" y="137.63" fill="#000000" width="10" height="10"/>
   <rect x="73.109" y="147.63" fill="#000000" width="10" height="10"/>
   <rect x="73.109" y="157.63" fill="#000000" width="10" height="10"/>
   <rect x="63.109" y="167.63" fill="#000000" width="10" height="10"/>
   <rect x="83.109" y="167.63" fill="#000000" width="10" height="10"/>
   <rect x="83.109" y="177.63" fill="#000000" width="10" height="10"/>
   <rect x="73.109" y="177.63" fill="#000000" width="10" height="10"/>
   <rect x="93.109" y="177.63" fill="#000000" width="10" height="10"/>
   <rect x="103.11" y="187.63" fill="#000000" width="10" height="10"/>
   <rect x="113.11" y="187.63" fill="#000000" width="10" height="10"/>
   <rect x="123.11" y="187.63" fill="#000000" width="10" height="10"/>
   <rect x="113.11" y="197.63" fill="#000000" width="10" height="10"/>
   <rect x="123.11" y="207.63" fill="#000000" width="10" height="10"/>
   <rect x="133.11" y="207.63" fill="#000000" width="10" height="10"/>
   <rect x="143.11" y="207.63" fill="#000000" width="10" height="10"/>
   <rect x="153.11" y="207.63" fill="#000000" width="10" height="10"/>
   <rect x="153.11" y="197.63" fill="#000000" width="10" height="10"/>
   <rect x="153.11" y="187.63" fill="#000000" width="10" height="10"/>
   <rect x="153.11" y="177.63" fill="#000000" width="10" height="10"/>
   <rect x="143.11" y="187.63" fill="#000000" width="10" height="10"/>
   <rect x="173.11" y="167.63" fill="#000000" width="10" height="10"/>
   <rect x="183.11" y="157.63" fill="#000000" width="10" height="10"/>
   <rect x="193.11" y="147.63" fill="#000000" width="10" height="10"/>
   <rect x="193.11" y="137.63" fill="#000000" width="10" height="10"/>
   <rect x="203.11" y="127.63" fill="#000000" width="10" height="10"/>
   <rect x="203.11" y="117.63" fill="#000000" width="10" height="10"/>
   <rect x="203.11" y="107.63" fill="#000000" width="10" height="10"/>
   <rect x="213.11" y="107.63" fill="#000000" width="10" height="10"/>
   <rect x="223.11" y="97.629" fill="#000000" width="10" height="10"/>
   <rect x="223.11" y="87.629" fill="#000000" width="10" height="10"/>
   <rect x="223.11" y="77.629" fill="#000000" width="10" height="10"/>
   <rect x="213.11" y="67.629" fill="#000000" width="10" height="10"/>
   <rect x="213.11" y="57.629" fill="#000000" width="10" height="10"/>
   <rect x="203.11" y="47.629" fill="#000000" width="10" height="10"/>
   <rect x="193.11" y="37.629" fill="#000000" width="10" height="10"/>
   <rect x="183.11" y="47.629" fill="#000000" width="10" height="10"/>
   <rect x="183.11" y="57.629" fill="#000000" width="10" height="10"/>
   <rect x="183.11" y="67.629" fill="#000000" width="10" height="10"/>
   <rect x="173.11" y="77.629" fill="#000000" width="10" height="10"/>
   <rect x="173.11" y="87.629" fill="#000000" width="10" height="10"/>
   <rect x="173.11" y="97.629" fill="#000000" width="10" height="10"/>
   <rect x="183.11" y="107.63" fill="#000000" width="10" height="10"/>
   <rect x="183.11" y="117.63" fill="#000000" width="10" height="10"/>
   <rect x="173.11" y="127.63" fill="#000000" width="10" height="10"/>
  </g>
  <g fill="#ff6600">
   <rect x="173.11" y="137.63" fill="#ff6600" width="10" height="10"/>
   <rect x="173.11" y="147.63" fill="#ff6600" width="10" height="10"/>
   <rect x="173.11" y="157.63" fill="#ff6600" width="10" height="10"/>
   <rect x="183.11" y="147.63" fill="#ff6600" width="10" height="10"/>
   <rect x="183.11" y="137.63" fill="#ff6600" width="10" height="10"/>
   <rect x="183.11" y="127.63" fill="#ff6600" width="10" height="10"/>
   <rect x="193.11" y="127.63" fill="#ff6600" width="10" height="10"/>
   <rect x="193.11" y="117.63" fill="#ff6600" width="10" height="10"/>
   <rect x="133.11" y="197.63" fill="#ff6600" width="10" height="10"/>
   <rect x="133.11" y="187.63" fill="#ff6600" width="10" height="10"/>
   <rect x="133.11" y="177.63" fill="#ff6600" width="10" height="10"/>
   <rect x="133.11" y="167.63" fill="#ff6600" width="10" height="10"/>
   <rect x="123.11" y="167.63" fill="#ff6600" width="10" height="10"/>
   <rect x="123.11" y="177.63" fill="#ff6600" width="10" height="10"/>
  </g>
  <g fill="#000000">
   <rect x="123.11" y="157.63" fill="#000000" width="10" height="10"/>
   <rect x="113.11" y="157.63" fill="#000000" width="10" height="10"/>
   <rect x="103.11" y="147.63" fill="#000000" width="10" height="10"/>
   <rect x="113.11" y="137.63" fill="#000000" width="10" height="10"/>
  </g>
  <g fill="#ff6600">
   <rect x="143.11" y="167.63" fill="#ff6600" width="10" height="10"/>
   <rect x="143.11" y="177.63" fill="#ff6600" width="10" height="10"/>
   <rect x="153.11" y="167.63" fill="#ff6600" width="10" height="10"/>
   <rect x="153.11" y="157.63" fill="#ff6600" width="10" height="10"/>
   <rect x="153.11" y="147.63" fill="#ff6600" width="10" height="10"/>
   <rect x="143.11" y="147.63" fill="#ff6600" width="10" height="10"/>
   <rect x="133.11" y="147.63" fill="#ff6600" width="10" height="10"/>
   <rect x="123.11" y="147.63" fill="#ff6600" width="10" height="10"/>
   <rect x="113.11" y="147.63" fill="#ff6600" width="10" height="10"/>
   <rect x="133.11" y="157.63" fill="#ff6600" width="10" height="10"/>
   <rect x="143.11" y="157.63" fill="#ff6600" width="10" height="10"/>
   <rect x="143.11" y="137.63" fill="#ff6600" width="10" height="10"/>
   <rect x="143.11" y="127.63" fill="#ff6600" width="10" height="10"/>
   <rect x="133.11" y="127.63" fill="#ff6600" width="10" height="10"/>
   <rect x="133.11" y="137.63" fill="#ff6600" width="10" height="10"/>
   <rect x="123.11" y="137.63" fill="#ff6600" width="10" height="10"/>
   <rect x="123.11" y="127.63" fill="#ff6600" width="10" height="10"/>
   <rect x="123.11" y="117.63" fill="#ff6600" width="10" height="10"/>
   <rect x="133.11" y="117.63" fill="#ff6600" width="10" height="10"/>
   <rect x="123.11" y="107.63" fill="#ff6600" width="10" height="10"/>
   <rect x="123.11" y="97.629" fill="#ff6600" width="10" height="10"/>
   <rect x="113.11" y="97.629" fill="#ff6600" width="10" height="10"/>
   <rect x="113.11" y="107.63" fill="#ff6600" width="10" height="10"/>
   <rect x="113.11" y="117.63" fill="#ff6600" width="10" height="10"/>
   <rect x="113.11" y="127.63" fill="#ff6600" width="10" height="10"/>
   <rect x="103.11" y="127.63" fill="#ff6600" width="10" height="10"/>
   <rect x="93.109" y="127.63" fill="#ff6600" width="10" height="10"/>
   <rect x="83.109" y="127.63" fill="#ff6600" width="10" height="10"/>
   <rect x="73.109" y="127.63" fill="#ff6600" width="10" height="10"/>
   <rect x="63.109" y="127.63" fill="#ff6600" width="10" height="10"/>
   <rect x="63.109" y="127.63" fill="#ff6600" width="10" height="10"/>
   <rect x="73.109" y="117.63" fill="#ff6600" width="10" height="10"/>
   <rect x="83.109" y="117.63" fill="#ff6600" width="10" height="10"/>
  </g>
  <g fill="#000000">
   <rect x="83.109" y="107.63" fill="#000000" width="10" height="10"/>
   <rect x="83.109" y="97.629" fill="#000000" width="10" height="10"/>
   <rect x="83.109" y="87.629" fill="#000000" width="10" height="10"/>
   <rect x="73.109" y="97.629" fill="#000000" width="10" height="10"/>
   <rect x="73.109" y="107.63" fill="#000000" width="10" height="10"/>
  </g>
  <g fill="#ff6600">
   <rect x="63.109" y="117.63" fill="#ff6600" width="10" height="10"/>
   <rect x="53.109" y="117.63" fill="#ff6600" width="10" height="10"/>
   <rect x="43.109" y="117.63" fill="#ff6600" width="10" height="10"/>
   <rect x="43.109" y="107.63" fill="#ff6600" width="10" height="10"/>
   <rect x="33.109" y="107.63" fill="#ff6600" width="10" height="10"/>
   <rect x="33.109" y="97.629" fill="#ff6600" width="10" height="10"/>
   <rect x="33.109" y="87.629" fill="#ff6600" width="10" height="10"/>
   <rect x="43.109" y="87.629" fill="#ff6600" width="10" height="10"/>
   <rect x="43.109" y="97.629" fill="#ff6600" width="10" height="10"/>
   <rect x="53.109" y="97.629" fill="#ff6600" width="10" height="10"/>
   <rect x="53.109" y="107.63" fill="#ff6600" width="10" height="10"/>
   <rect x="63.109" y="107.63" fill="#ff6600" width="10" height="10"/>
   <rect x="63.109" y="97.629" fill="#ff6600" width="10" height="10"/>
   <rect x="63.109" y="87.629" fill="#ff6600" width="10" height="10"/>
   <rect x="53.109" y="87.629" fill="#ff6600" width="10" height="10"/>
   <rect x="93.109" y="117.63" fill="#ff6600" width="10" height="10"/>
   <rect x="93.109" y="117.63" fill="#ff6600" width="10" height="10"/>
   <rect x="93.109" y="107.63" fill="#ff6600" width="10" height="10"/>
   <rect x="93.109" y="97.629" fill="#ff6600" width="10" height="10"/>
   <rect x="93.109" y="87.629" fill="#ff6600" width="10" height="10"/>
   <rect x="103.11" y="87.629" fill="#ff6600" width="10" height="10"/>
   <rect x="103.11" y="97.629" fill="#ff6600" width="10" height="10"/>
   <rect x="103.11" y="107.63" fill="#ff6600" width="10" height="10"/>
   <rect x="103.11" y="117.63" fill="#ff6600" width="10" height="10"/>
   <rect x="113.11" y="87.629" fill="#ff6600" width="10" height="10"/>
   <rect x="103.11" y="137.63" fill="#ff6600" width="10" height="10"/>
   <rect x="93.109" y="137.63" fill="#ff6600" width="10" height="10"/>
  </g>
  <g fill="#ffff00">
   <rect x="93.109" y="147.63" fill="#ffff00" width="10" height="10"/>
   <rect x="83.109" y="147.63" fill="#ffff00" width="10" height="10"/>
   <rect x="83.109" y="157.63" fill="#ffff00" width="10" height="10"/>
   <rect x="93.109" y="157.63" fill="#ffff00" width="10" height="10"/>
   <rect x="93.109" y="167.63" fill="#ffff00" width="10" height="10"/>
   <rect x="103.11" y="167.63" fill="#ffff00" width="10" height="10"/>
   <rect x="103.11" y="157.63" fill="#ffff00" width="10" height="10"/>
   <rect x="103.11" y="177.63" fill="#ffff00" width="10" height="10"/>
   <rect x="113.11" y="177.63" fill="#ffff00" width="10" height="10"/>
   <rect x="113.11" y="167.63" fill="#ffff00" width="10" height="10"/>
   <rect x="193.11" y="107.63" fill="#ffff00" width="10" height="10"/>
   <rect x="193.11" y="97.629" fill="#ffff00" width="10" height="10"/>
   <rect x="203.11" y="97.629" fill="#ffff00" width="10" height="10"/>
   <rect x="203.11" y="87.629" fill="#ffff00" width="10" height="10"/>
  </g>
  <g fill="#e6e6e6">
   <rect x="123.11" y="197.63" fill="#e6e6e6" width="10" height="10"/>
   <rect x="143.11" y="197.63" fill="#e6e6e6" width="10" height="10"/>
   <rect x="73.109" y="167.63" fill="#e6e6e6" width="10" height="10"/>
  </g>
  <g fill="#ff0000">
   <rect x="193.11" y="87.629" fill="#ff0000" width="10" height="10"/>
   <rect x="183.11" y="87.629" fill="#ff0000" width="10" height="10"/>
   <rect x="183.11" y="97.629" fill="#ff0000" width="10" height="10"/>
   <rect x="213.11" y="97.629" fill="#ff0000" width="10" height="10"/>
   <rect x="213.11" y="87.629" fill="#ff0000" width="10" height="10"/>
   <rect x="213.11" y="77.629" fill="#ff0000" width="10" height="10"/>
   <rect x="203.11" y="77.629" fill="#ff0000" width="10" height="10"/>
   <rect x="193.11" y="77.629" fill="#ff0000" width="10" height="10"/>
   <rect x="183.11" y="77.629" fill="#ff0000" width="10" height="10"/>
   <rect x="193.11" y="67.629" fill="#ff0000" width="10" height="10"/>
   <rect x="193.11" y="57.629" fill="#ff0000" width="10" height="10"/>
   <rect x="193.11" y="47.629" fill="#ff0000" width="10" height="10"/>
   <rect x="203.11" y="57.629" fill="#ff0000" width="10" height="10"/>
   <rect x="203.11" y="67.629" fill="#ff0000" width="10" height="10"/>
  </g>
 </g>
</svg>
